<svg height="100" viewBox="0 0 100 100" width="100" xmlns="http://www.w3.org/2000/svg"><path d="m44.9 82.2-3.4 9.3-1.7-.6 3.4-9.3zm-9.8 6.7-1.7-1.1.5-7.4c0-.5.1-1 .2-1.4-.2.3-.4.6-.7 1.1l-3.6 5.4-1.4-.9 5.5-8.2 1.7 1.1-.5 7.5c0 .5-.1.9-.2 1.4.2-.3.4-.7.7-1.1l3.6-5.3 1.4.9zm-13.8-14.3 1.9 2.3 6.5-5.4 1.2 1.4-6.5 5.4 1.9 2.3-1.1.9-5-6zm1.7-12.2 1.3-.6 2.8 5.9-9 4.2-2.7-5.8 1.3-.6 2 4.2 2.5-1.1-1.9-4 1.3-.6 1.9 4 2.7-1.3-2.2-4.3zm-3.9-5.5.3 1.7 3.9-.6.3 1.8-9.8 1.5-.6-3.9c-.4-2.5.8-3.6 2.4-3.8 1.2-.2 2.4.2 3 1.6l3.8-3 .3 2zm-1 1.9-.3-1.9c-.2-1.3-1-1.7-1.9-1.6s-1.5.7-1.3 2.1l.3 1.9zm-3.8-11.4 2.7.3.5-4.4 1.4.2-.5 4.4 4.3.5-.2 1.8-9.8-1.1.7-6.4 1.4.2zm8.8-10.9-1.4 3.6 2.1 1.8-.7 1.7-7.9-7 .7-1.8 10.6.1-.7 1.7zm-1.4 0-3.5-.1c-.3 0-.7 0-1.1-.1.4.2.6.4.9.7l2.7 2.3zm1.3-5.1c-2.4-1.9-3-4.5-1.2-6.8 1.5-1.9 3.5-2.2 5.3-1.1l-.9 1.6c-1.2-.7-2.4-.6-3.3.4-1.1 1.4-.5 3.1 1.2 4.4s3.5 1.5 4.6.1c.8-1 .6-2.2-.3-3.3l1.4-1.2c1.3 1.5 1.6 3.5.1 5.4-1.9 2.5-4.6 2.3-6.9.5zm15.3-10.1.8 1.1-5.3 3.8-5.8-8 5.2-3.8.8 1.1-3.7 2.7 1.6 2.2 3.6-2.6.8 1.1-3.6 2.6 1.7 2.4zm4.8-6.1c-.6-3 .6-5.4 3.5-6.1 2.6-.6 4.1.8 4.6 2.1l-1.7.7c-.3-.8-1.1-1.7-2.6-1.4-1.8.4-2.5 2.1-2 4.3.5 2.1 1.7 3.5 3.6 3.1 2-.4 2.1-2.1 1.9-3v-.2l-2.6.6-.3-1.3 4.2-.9 1.1 5.2-1.3.3-.5-1.6c-.2 1.1-1.2 2-2.6 2.4-2.7.5-4.7-1.2-5.3-4.2zm17.7.8-3.9-.4-1.1 2.5-1.8-.1 4.6-9.5 1.9.2 2.7 10.2-1.8-.2zm-.4-1.4-.8-3.4c-.1-.3-.1-.6-.2-1.1-.1.4-.2.7-.4 1l-1.5 3.2zm8.6-4.3 2.3 1.1-.9 7.2c-.1.5-.1.7-.2 1.1.2-.3.3-.5.7-.9l4.9-5.3 2.3 1.1-4.2 9-1.5-.7 3-6.5c.2-.4.3-.7.5-1-.1.2-.5.6-.7.8l-5.2 5.6-1.4-.8.9-7.6c0-.3.1-.8.2-1.1h-.1c-.1.3-.2.6-.4 1l-3 6.5-1.4-.7zm12.5 18.4-1 1-4.7-4.5 6.8-7.2 4.7 4.4-1 1-3.3-3.1-1.9 2 3.2 3-1 1-3.2-3-2 2.2z"/></svg>