<svg height="67" viewBox="0 0 67 67" width="67" xmlns="http://www.w3.org/2000/svg" xmlns:xlink="http://www.w3.org/1999/xlink"><linearGradient id="a" gradientUnits="userSpaceOnUse" x1="33.5061" x2="33.5061" y1="23.127" y2="56.1256"><stop offset="0" stop-color="#fcbb28" stop-opacity="0"/><stop offset="1" stop-color="#fca028"/></linearGradient><circle cx="33.5" cy="33.5" fill="none" r="33.5"/><circle cx="33.5" cy="33.5" fill="#ffda54" r="30.8"/><path d="m33.5 2.7c-17 0-30.8 13.8-30.8 30.8s13.8 30.8 30.8 30.8 30.8-13.8 30.8-30.8-13.8-30.8-30.8-30.8zm0 59.8c-16.2 0-29.4-13.2-29.4-29.4s13.2-29.4 29.4-29.4 29.4 13.2 29.4 29.4-13.1 29.4-29.4 29.4z" fill="url(#a)"/><path d="m48.9 38.5c-5.7 1.2-10.9 1.5-15.4 1.5s-9.7-.3-15.4-1.5c-1.2-.3-1.8.7-1.6 1.8 1.1 6.9 8.8 13.1 17 13.1s15.9-6.3 17-13.1c.2-1.1-.4-2.1-1.6-1.8z" fill="#ffda54"/><path d="m48.9 37.7c-5.7 1.3-10.9 1.5-15.4 1.5s-9.7-.3-15.4-1.5c-1.2-.3-1.8.7-1.6 1.8 1.1 6.9 8.3 13.1 17 13.1s15.9-6.3 17-13.1c.2-1.1-.4-2.1-1.6-1.8z" fill="#af4c0e"/><path d="m33.5 40.3c-7.8 0-15.6-1.3-15.6-1.3v2.6c0 1 .8 1.5 1.4 1.6 2.2.6 7.2 1.6 14.2 1.6 7.1 0 12-1 14.2-1.6.6-.1 1.4-.7 1.4-1.6v-2.6s-7.8 1.3-15.6 1.3z" fill="#98380d"/><path d="m33.5 39.7c-7.8 0-15.6-1.3-15.6-1.3v2.6c0 1 .8 1.5 1.4 1.6 2.2.6 7.2 1.6 14.2 1.6 7.1 0 12-1 14.2-1.6.6-.1 1.4-.7 1.4-1.6v-2.6s-7.8 1.3-15.6 1.3z" fill="#e6b9b7"/><path d="m27.6 43.3c-.5 0-1.1-.1-1.9-.2-.6-.1-1-.6-1-1.1v-2h3.8v2.5c-.1.5-.5.8-.9.8z" fill="#ffe4d0"/><path d="m49.1 37.7c-.9.2-8.4 1.6-15.6 1.5-7.3 0-14.7-1.3-15.6-1.5v1.5s5.9 1.8 15.6 1.8 15.6-1.8 15.6-1.8z" fill="#c18272"/><path d="m15.8 25.9c-.2 0-.4 0-.6-.1-.7-.3-1-1.1-.7-1.8.1-.2 2.1-4.4 7.2-4.4s7.1 3.7 7.1 3.9c.3.7.1 1.5-.6 1.9s-1.2 0-1.9-.6c-.1-.1-1.3-1.3-4.7-1.3-3.3 0-4.6 1.6-4.7 1.7-.2.3-.6.7-1.1.7z" fill="#ffe585"/><path d="m15.8 25.4c-.2 0-.4 0-.6-.1-.7-.3-1-1.1-.7-1.8.1-.2 2.1-4.4 7.2-4.4s7.1 3.7 7.1 3.9c.3.7.1 1.5-.6 1.9s-1.2 0-1.9-.6c-.1-.1-1.3-1.3-4.7-1.3-3.3 0-4.6 1.6-4.7 1.7-.2.3-.6.7-1.1.7z" fill="#fda330"/><path d="m39.3 25.9c-.2 0-.4 0-.6-.1-.7-.3-1-1.1-.7-1.8.1-.2 2.1-4.4 7.2-4.4s7.1 3.7 7.1 3.9c.3.7.1 1.5-.6 1.9s-1.2 0-1.9-.6c-.1-.1-1.3-1.3-4.7-1.3-3.3 0-4.6 1.6-4.7 1.7-.3.3-.6.7-1.1.7z" fill="#ffe585"/><path d="m39.3 25.4c-.2 0-.4 0-.6-.1-.7-.3-1-1.1-.7-1.8.1-.2 2.1-4.4 7.2-4.4s7.1 3.7 7.1 3.9c.3.7.1 1.5-.6 1.9s-1.2 0-1.9-.6c-.1-.1-1.3-1.3-4.7-1.3-3.3 0-4.6 1.6-4.7 1.7-.3.3-.6.7-1.1.7z" fill="#fda330"/><path d="m59.4 30.2c.9 1.5.4 3.5-1.1 4.4s-3.4.4-4.3-1.1-.3-6.7-.3-6.7 4.8 1.9 5.7 3.4zm-48.3 3.6c-1.2 1.3-3.2 1.4-4.5.3s-1.4-3.2-.3-4.5c1.2-1.3 6.3-2.3 6.3-2.3s-.4 5.2-1.5 6.5z" fill="#2ebaff"/></svg>