<svg height="67" viewBox="0 0 67 67" width="67" xmlns="http://www.w3.org/2000/svg" xmlns:xlink="http://www.w3.org/1999/xlink"><linearGradient id="a" gradientUnits="userSpaceOnUse" x1="33.5158" x2="33.5158" y1="23.1106" y2="56.0826"><stop offset="0" stop-color="#fcbb28" stop-opacity="0"/><stop offset="1" stop-color="#fca028"/></linearGradient><circle cx="33.5" cy="33.5" fill="none" r="33.5"/><circle cx="33.5" cy="33.5" fill="#ffda54" r="30.8"/><path d="m33.5 2.7c-17 0-30.8 13.8-30.8 30.8s13.8 30.8 30.8 30.8 30.8-13.8 30.8-30.8-13.8-30.8-30.8-30.8zm0 59.7c-16.2 0-29.4-13.1-29.4-29.4 0-16.2 13.2-29.4 29.4-29.4s29.4 13.2 29.4 29.4c0 16.3-13.2 29.4-29.4 29.4z" fill="url(#a)"/><circle cx="44.9" cy="21.7" fill="#fff" r="8.2"/><circle cx="44.9" cy="21.7" fill="#575756" r="3.3"/><path d="m44.9 13.5c-4.5 0-8.2 3.7-8.2 8.2s3.7 8.2 8.2 8.2 8.2-3.7 8.2-8.2c-.1-4.5-3.7-8.2-8.2-8.2zm0 15.8c-4 0-7.2-3.2-7.2-7.2s3.2-7.2 7.2-7.2 7.2 3.2 7.2 7.2c-.1 4-3.3 7.2-7.2 7.2z" fill="#fda330"/><circle cx="22.2" cy="21.7" fill="#fff" r="8.2"/><circle cx="22.2" cy="21.7" fill="#575756" r="3.3"/><path d="m22.2 13.5c-4.5 0-8.2 3.7-8.2 8.2s3.7 8.2 8.2 8.2 8.2-3.7 8.2-8.2c-.1-4.5-3.7-8.2-8.2-8.2zm0 15.8c-4 0-7.2-3.2-7.2-7.2s3.2-7.2 7.2-7.2 7.2 3.2 7.2 7.2c-.1 4-3.3 7.2-7.2 7.2z" fill="#fda330"/><path d="m49.1 52.2h-31.2c-3 0-5.4-2.4-5.4-5.4s2.4-5.4 5.4-5.4h31.2c3 0 5.4 2.4 5.4 5.4s-2.4 5.4-5.4 5.4z" fill="#ffda54"/><path d="m49.1 51.5h-31.2c-3 0-5.4-2.4-5.4-5.4s2.4-5.4 5.4-5.4h31.2c3 0 5.4 2.4 5.4 5.4s-2.4 5.4-5.4 5.4z" fill="#af4c0e"/><path d="m47.6 47.8s-3.9 1.3-14.1 1.3-14.1-1.3-14.1-1.3c-1.2 0-2.1-.9-2.1-2.1v-5.1h32.3v5.1c.1 1.2-.9 2.1-2 2.1z" fill="#e6b9b7"/><path d="m17.3 40.7h32.3v2.6h-32.3z" fill="#c18272"/><path d="m30.7 47.7h-1.2c-.9 0-1.7-.8-1.7-1.7v-2.7h4.6v2.7c0 .9-.8 1.7-1.7 1.7z" fill="#ffe4d0"/><path d="m56.2 35.3c0 1.5-1.2 2.8-2.8 2.8s-2.8-1.2-2.8-2.8 2.8-5.1 2.8-5.1 2.8 3.6 2.8 5.1zm-18.9-27c0 1.5-1.2 2.8-2.8 2.8-1.5 0-2.8-1.2-2.8-2.8s2.8-5.1 2.8-5.1 2.8 3.6 2.8 5.1zm-24.2 20.4c0 1.5-1.2 2.8-2.8 2.8s-2.8-1.2-2.8-2.8 2.8-5.1 2.8-5.1 2.8 3.6 2.8 5.1z" fill="#2ebaff"/></svg>