<svg height="67" viewBox="0 0 67 67" width="67" xmlns="http://www.w3.org/2000/svg" xmlns:xlink="http://www.w3.org/1999/xlink"><linearGradient id="a" gradientUnits="userSpaceOnUse" x1="33.5121" x2="33.5121" y1="23.129" y2="56.1211"><stop offset="0" stop-color="#fcbb28" stop-opacity="0"/><stop offset="1" stop-color="#fca028"/></linearGradient><circle cx="33.5" cy="33.5" fill="none" r="33.5"/><circle cx="33.5" cy="33.5" fill="#ffda54" r="30.8"/><path d="m33.5 2.7c-17 0-30.8 13.8-30.8 30.8s13.8 30.8 30.8 30.8 30.8-13.8 30.8-30.8-13.8-30.8-30.8-30.8zm0 59.8c-16.2 0-29.4-13.2-29.4-29.4s13.2-29.4 29.4-29.4 29.4 13.2 29.4 29.4-13.1 29.4-29.4 29.4z" fill="url(#a)"/><path d="m53 38.6c-7.2 1.6-13.7 1.9-19.5 1.9-5.7 0-12.3-.3-19.5-1.9-1.6-.3-2.3.9-2 2.3 1.4 8.7 11.1 16.6 21.5 16.6s20.1-7.9 21.5-16.6c.3-1.4-.4-2.7-2-2.3z" fill="#ffda54"/><path d="m53 37.6c-7.2 1.6-13.7 1.9-19.5 1.9-5.7 0-12.3-.3-19.5-1.9-1.6-.3-2.3.9-2 2.3 1.4 8.7 10.5 16.6 21.5 16.6s20.1-7.9 21.5-16.6c.3-1.4-.4-2.6-2-2.3z" fill="#af4c0e"/><path d="m33.5 40.8c-9.9 0-19.7-1.6-19.7-1.6v3.3c0 1.2 1 1.9 1.7 2.1 2.8.7 9.1 2 18 2s15.2-1.3 18-2c.7-.2 1.7-.9 1.7-2.1v-3.3s-9.8 1.7-19.7 1.6z" fill="#98380d"/><path d="m34.8 53.1h-2.7c-2 0-3.7-1.6-3.7-3.7v-6.2c0-2 1.6-3.7 3.7-3.7h2.7c2 0 3.7 1.6 3.7 3.7v6.2c0 2-1.6 3.7-3.7 3.7z" fill="#e03855"/><path d="m28.5 46.5s4.7.7 10 0v-1.2h-10z" fill="#ac2d13"/><path d="m33.5 40.1c-9.9 0-19.7-1.6-19.7-1.6v3.3c0 1.2 1 1.9 1.7 2.1 2.8.7 9.1 2 18 2s15.2-1.3 18-2c.7-.2 1.7-.9 1.7-2.1v-3.3s-9.8 1.6-19.7 1.6z" fill="#e6b9b7"/><path d="m26 44.7c-.6 0-1.4-.1-2.4-.2-.7-.1-1.2-.7-1.2-1.4v-2.6h4.8v3.2c0 .5-.6 1-1.2 1z" fill="#ffe4d0"/><path d="m53.3 37.5c-1.2.3-10.6 2-19.7 2-9.2 0-18.6-1.7-19.7-1.9v1.8s7.5 2.3 19.7 2.3 19.7-2.3 19.7-2.3z" fill="#c18272"/><path d="m33.5 49.4c-.2 0-.3-.1-.4-.3l-.4-2.8h1.5l-.4 2.8c0 .2-.1.3-.3.3z" fill="#ac2d13"/><path d="m51.1 17.6c-1.8-.4-3.6.2-4.8 1.5-.6-1.6-2-2.9-3.8-3.3-2.7-.6-5.5 1.1-6 4-.2 1.3-.1 6.2 5.5 11.7.3.3 1 .9 1.4 1s1.3-.2 1.7-.3c7.3-2.7 9.5-7.2 9.8-8.4.8-2.9-1.1-5.6-3.8-6.2z" fill="#ffe585"/><path d="m50.8 17.5c-1.7-.4-3.4.2-4.5 1.4-.5-1.5-1.9-2.8-3.6-3.1-2.6-.5-5.2 1.1-5.7 3.8-.2 1.2-.1 5.9 5.2 11 .3.3 1 .9 1.3.9.4.1 1.2-.2 1.6-.3 6.9-2.6 9-6.8 9.3-7.9.8-2.6-1-5.2-3.6-5.8z" fill="#e03855"/><path d="m17 17.6c1.8-.4 3.6.2 4.8 1.5.6-1.6 2-2.9 3.8-3.3 2.7-.6 5.5 1.1 6 4 .2 1.3.1 6.2-5.5 11.7-.3.3-1 .9-1.4 1s-1.3-.2-1.7-.3c-7.3-2.7-9.5-7.2-9.8-8.4-.8-2.9 1.1-5.6 3.8-6.2z" fill="#ffe585"/><path d="m17.3 17.5c1.7-.4 3.4.2 4.5 1.4.5-1.5 1.9-2.8 3.6-3.1 2.6-.5 5.2 1.1 5.7 3.8.2 1.2.1 5.9-5.2 11-.3.3-1 .9-1.3.9-.4.1-1.2-.2-1.6-.3-6.9-2.6-9-6.8-9.3-7.9-.8-2.6 1-5.2 3.6-5.8z" fill="#e03855"/></svg>