<svg height="67" viewBox="0 0 67 67" width="67" xmlns="http://www.w3.org/2000/svg" xmlns:xlink="http://www.w3.org/1999/xlink"><linearGradient id="a" gradientUnits="userSpaceOnUse" x1="33.5121" x2="33.5121" y1="23.3023" y2="56.1554"><stop offset="0" stop-color="#fcbb28" stop-opacity="0"/><stop offset="1" stop-color="#fca028"/></linearGradient><clipPath id="b"><circle cx="33.5" cy="33.6" r="30.6"/></clipPath><circle cx="33.5" cy="33.5" fill="none" r="33.5"/><circle cx="33.5" cy="33.6" fill="#ffda54" r="30.6"/><path d="m33.5 3c-16.9 0-30.6 13.7-30.6 30.6s13.7 30.6 30.6 30.6 30.6-13.7 30.6-30.6c.1-16.9-13.7-30.6-30.6-30.6zm0 59.5c-16.2 0-29.3-13.1-29.3-29.3s13.1-29.3 29.3-29.3 29.3 13.1 29.3 29.3-13.1 29.3-29.3 29.3z" fill="url(#a)"/><path d="m52.9 50.8h-38.8c-2.9 0-5.2-2.3-5.2-5.2v-.4c0-2.9 2.3-5.2 5.2-5.2h38.8c2.9 0 5.2 2.3 5.2 5.2v.4c0 2.9-2.3 5.2-5.2 5.2z" fill="#ffda54"/><path d="m52.9 50.1h-38.8c-2.9 0-5.2-2.3-5.2-5.2v-.4c0-2.9 2.3-5.2 5.2-5.2h38.8c2.9 0 5.2 2.3 5.2 5.2v.4c0 2.9-2.3 5.2-5.2 5.2z" fill="#af4c0e"/><path d="m38.3 25c0-1.9 4-6 9.3-6.6 1.5-.2 2.7 1.1 1.8 2.3l-2.9 2.9c-.8.8-.8 2 0 2.8l2.9 2.9c.9 1.2-.3 2.5-1.8 2.3-5.3-.6-9.3-4.7-9.3-6.6" fill="#ffe585"/><path d="m38.3 24.5c0-1.9 4-6 9.3-6.6 1.5-.2 2.7 1.1 1.8 2.3l-2.9 2.9c-.8.8-.8 2 0 2.8l2.9 2.9c.9 1.2-.3 2.5-1.8 2.3-5.3-.6-9.3-4.7-9.3-6.6" fill="#fda330"/><path d="m29.5 25c0-1.9-4-6-9.3-6.6-1.5-.2-2.7 1.1-1.8 2.3l2.9 2.9c.8.8.8 2 0 2.8l-2.9 2.9c-.9 1.2.3 2.5 1.8 2.3 5.3-.6 9.3-4.7 9.3-6.6" fill="#ffe585"/><path d="m29.5 24.5c0-1.9-4-6-9.3-6.6-1.5-.2-2.7 1.1-1.8 2.3l2.9 2.9c.8.8.8 2 0 2.8l-2.9 2.9c-.9 1.2.3 2.5 1.8 2.3 5.3-.6 9.3-4.7 9.3-6.6" fill="#fda330"/><g clip-path="url(#b)"><path d="m21.9 39.3h7.7v28.4h-7.7z" fill="#2ebaff"/><path d="m21.9 67.7h-.3c-4.1 0-7.4-3.3-7.4-7.4v-21h7.7z" fill="#d56efb"/><path d="m29.7 39.3h7.7v28.4h-7.7z" fill="#f4eb45"/><path d="m37.4 39.3h7.7v28.4h-7.7z" fill="#80d869"/><path d="m45.4 67.7h-.3v-28.4h7.7v20.9c0 4.2-3.3 7.5-7.4 7.5z" fill="#fe7e41"/><path d="m45.1 39.3h7.7v2.6h-7.7z" fill="#fb4b23"/><path d="m37.4 39.3h7.7v2.6h-7.7z" fill="#3aaa35"/><path d="m29.7 39.3h7.7v2.6h-7.7z" fill="#f9b233"/><path d="m21.9 39.3h7.7v2.6h-7.7z" fill="#009fe3"/><path d="m14.2 39.3h7.7v2.6h-7.7z" fill="#662483"/><path d="m45.1 41.7h.5v26h-.5z" fill="#fb4b23"/><path d="m37.4 41.2h.5v26.5h-.5z" fill="#3aaa35"/><path d="m29.1 41.2h.5v26.5h-.5z" fill="#009fe3"/><path d="m21.4 41.2h.5v26.5h-.5z" fill="#662483"/><path d="m44.7 54.2c-.6-.8-1.7-1.9-2.5-2.5-.3-.2-.3-.6 0-.8.8-.6 1.9-1.7 2.5-2.5.2-.3.6-.3.8 0 .6.8 1.7 1.9 2.5 2.5.3.2.3.6 0 .8-.8.6-1.9 1.7-2.5 2.5-.2.2-.6.2-.8 0zm-23.1 5.6c-.6-.9-1.7-2-2.6-2.6-.3-.2-.3-.5 0-.7.9-.6 2-1.7 2.6-2.6.2-.3.5-.3.7 0 .6.9 1.7 2 2.6 2.6.3.2.3.5 0 .7-.9.6-2 1.7-2.6 2.6-.2.3-.5.3-.7 0z" fill="#fff"/></g></svg>