<svg height="67" viewBox="0 0 67 67" width="67" xmlns="http://www.w3.org/2000/svg" xmlns:xlink="http://www.w3.org/1999/xlink"><linearGradient id="a" gradientUnits="userSpaceOnUse" x1="33.5121" x2="33.5121" y1="23.127" y2="56.1256"><stop offset="0" stop-color="#fcbb28" stop-opacity="0"/><stop offset="1" stop-color="#fca028"/></linearGradient><circle cx="33.5" cy="33.5" fill="none" r="33.5"/><circle cx="33.5" cy="33.5" fill="#ffda54" r="30.8"/><path d="m33.5 2.7c-17 0-30.8 13.8-30.8 30.8s13.8 30.8 30.8 30.8 30.8-13.8 30.8-30.8-13.8-30.8-30.8-30.8zm0 59.8c-16.2 0-29.4-13.2-29.4-29.4s13.2-29.4 29.4-29.4 29.4 13.2 29.4 29.4-13.1 29.4-29.4 29.4z" fill="url(#a)"/><path d="m52 27.1c1.4 0 2.3 1.3 1.9 2.6-1.1 3.5-4.3 6-8.2 6s-7.1-2.5-8.2-6c-.4-1.3.5-2.6 1.9-2.6z" fill="#fff"/><path d="m42.6 27.6c-.2.4-.3.9-.3 1.4 0 1.9 1.5 3.4 3.4 3.4s3.4-1.5 3.4-3.4c0-.5-.1-.9-.3-1.4z" fill="#575756"/><path d="m40.5 25.6c-2.7 0-3.4 2.8-2.9 4.1 1.1 3.5 4.3 6 8.2 6 3.8 0 7.1-2.5 8.2-6 .4-1.3.1-4.1-3.2-4.1zm5.2 9.5c-3.1 0-5.8-1.9-6.9-4.6-.6-1.4.5-2.9 2-2.9h10c1.5 0 2.5 1.5 2 2.9-1.2 2.7-3.9 4.6-7.1 4.6z" fill="#fda330"/><path d="m28.4 27.1c1.4 0 2.3 1.3 1.9 2.6-1.1 3.5-4.3 6-8.2 6s-7.1-2.5-8.2-6c-.4-1.3.5-2.6 1.9-2.6z" fill="#fff"/><path d="m19 27.6c-.2.4-.3.9-.3 1.4 0 1.9 1.5 3.4 3.4 3.4s3.4-1.5 3.4-3.4c0-.5-.1-.9-.3-1.4z" fill="#575756"/><path d="m16.9 25.6c-2.7 0-3.4 2.8-2.9 4.1 1.1 3.5 4.3 6 8.2 6 3.8 0 7.1-2.5 8.2-6 .4-1.3.1-4.1-3.2-4.1zm5.2 9.5c-3.1 0-5.8-1.9-6.9-4.6-.6-1.4.5-2.9 2-2.9h10c1.5 0 2.5 1.5 2 2.9-1.3 2.7-4 4.6-7.1 4.6z" fill="#fda330"/><path d="m42.6 46.5c-.3 0-18.2.1-18.7-.5s-.4-1.4.1-1.9c.3-.2 3-2.4 9.5-2.4 6.6 0 9.7 2.2 9.9 2.3.6.4.7 1.3.3 1.9-.3.4-.7.6-1.1.6z" fill="#af4c0e"/><path d="m43.4 43.6c-.1-.1-3.2-2.3-9.8-2.3s-9.7 2.2-9.8 2.3c-.6.4-.7 1.3-.3 1.9.3.4.7.6 1.1.6h18c.4 0 .8-.2 1.1-.6.4-.6.3-1.5-.3-1.9z" fill="#af4c0e"/><path d="m52.1 21.7h-12.8c-.7 0-1.3-.6-1.3-1.3s.6-1.3 1.3-1.3h12.7c.7 0 1.3.6 1.3 1.3.1.7-.5 1.3-1.2 1.3zm-24.2 0h-12.8c-.7 0-1.3-.6-1.3-1.3s.6-1.3 1.3-1.3h12.7c.7 0 1.3.6 1.3 1.3.1.7-.5 1.3-1.2 1.3z" fill="#fda330"/></svg>