<svg height="67" viewBox="0 0 67 67" width="67" xmlns="http://www.w3.org/2000/svg" xmlns:xlink="http://www.w3.org/1999/xlink"><linearGradient id="a" gradientUnits="userSpaceOnUse" x1="33.506" x2="33.506" y1="23.1106" y2="56.0826"><stop offset="0" stop-color="#fcbb28" stop-opacity="0"/><stop offset="1" stop-color="#fca028"/></linearGradient><circle cx="33.5" cy="33.5" fill="none" r="33.5"/><circle cx="33.5" cy="33.5" fill="#ffda54" r="30.8"/><path d="m33.5 2.7c-17 0-30.8 13.8-30.8 30.8s13.8 30.8 30.8 30.8 30.8-13.8 30.8-30.8-13.8-30.8-30.8-30.8zm0 59.7c-16.2 0-29.4-13.1-29.4-29.4 0-16.2 13.2-29.4 29.4-29.4s29.4 13.2 29.4 29.4c0 16.3-13.2 29.4-29.4 29.4z" fill="url(#a)"/><ellipse cx="33.5" cy="46" fill="#ffda54" rx="8.2" ry="9.5"/><ellipse cx="33.5" cy="45.1" fill="#af4c0e" rx="7.7" ry="9.5"/><circle cx="45.2" cy="22" fill="#fff" r="8.2"/><circle cx="45.2" cy="22" fill="#575756" r="3.3"/><path d="m45.2 13.8c-4.5 0-8.2 3.7-8.2 8.2s3.7 8.2 8.2 8.2 8.2-3.7 8.2-8.2c0-4.6-3.7-8.2-8.2-8.2zm0 15.8c-4 0-7.2-3.2-7.2-7.2s3.2-7.2 7.2-7.2 7.2 3.2 7.2 7.2c-.1 3.9-3.3 7.2-7.2 7.2z" fill="#fda330"/><circle cx="22.5" cy="22" fill="#fff" r="8.2"/><circle cx="22.5" cy="22" fill="#575756" r="3.3"/><path d="m22.5 13.8c-4.5 0-8.2 3.7-8.2 8.2s3.7 8.2 8.2 8.2 8.2-3.7 8.2-8.2c0-4.6-3.7-8.2-8.2-8.2zm0 15.8c-4 0-7.2-3.2-7.2-7.2s3.2-7.2 7.2-7.2 7.2 3.2 7.2 7.2c-.1 3.9-3.3 7.2-7.2 7.2z" fill="#fda330"/><path d="m33.5 37.8c3.9 0 7.2 3.7 7.6 8.4 0-.4.1-.8.1-1.1 0-5.3-3.4-9.5-7.7-9.5s-7.7 4.3-7.7 9.5c0 .4 0 .8.1 1.1.4-4.7 3.7-8.4 7.6-8.4z" fill="#98380d"/><path d="m27 47.1s.9 6.7 6.5 6.7 6.5-6.7 6.5-6.7-2.5-2.5-6.5-2.5-6.5 2.5-6.5 2.5z" fill="#fc6853"/></svg>