<svg id="smiles" xmlns="http://www.w3.org/2000/svg" width="67" height="67" viewBox="0 0 67 67">
  <style>
    .st3{fill:#ffda54}.st8{fill:#ac2d13}.st30{fill:#fff}.st60{fill:#575756}.st61{fill:#fda330}
  </style>
  <ellipse transform="rotate(-17.24 33.4946 33.4955)" cx="33.5" cy="33.5" rx="33.5" ry="33.5" fill="#fde6e5" fill-opacity="0"/>
  <ellipse transform="rotate(-17.24 33.489 33.4973)" class="st3" cx="33.5" cy="33.5" rx="30.5" ry="30.5"/>
  <linearGradient id="SVGID_1_" gradientUnits="userSpaceOnUse" x1="29.9824" y1="46.4584" x2="29.9824" y2="79.1843" gradientTransform="rotate(-17.24 -44.932 33.4943)">
    <stop offset="0" stop-color="#fcbb28" stop-opacity="0"/>
    <stop offset="1" stop-color="#fca028"/>
  </linearGradient>
  <path d="M24.5 4.3C8.4 9.3-.6 26.4 4.4 42.5s22.1 25.1 38.2 20.1 25.1-22.1 20.1-38.2c-5-16-22.1-25-38.2-20.1zM42 60.9c-15.4 4.8-31.7-3.8-36.5-19.2C.7 26.3 9.3 10 24.7 5.2 40.1.4 56.4 9 61.2 24.4 66 39.8 57.4 56.2 42 60.9z" fill="url(#SVGID_1_)"/>
  <ellipse transform="rotate(-17.24 38.2105 21.7654)" class="st30" cx="38.2" cy="21.8" rx="9.5" ry="9.5"/>
  <ellipse transform="rotate(-17.24 38.6269 20.2894)" class="st60" cx="38.6" cy="20.3" rx="4.5" ry="4.5"/>
  <path class="st61" d="M35.4 12.7c-5 1.5-7.8 6.9-6.2 11.9 1.5 5 6.9 7.8 11.9 6.2 5-1.5 7.8-6.9 6.2-11.9-1.6-4.9-6.9-7.7-11.9-6.2zm5.4 17.5c-4.4 1.4-9-1.1-10.4-5.5-1.4-4.4 1.1-9 5.5-10.4s9 1.1 10.4 5.5c1.3 4.3-1.1 9-5.5 10.4z"/>
  <ellipse transform="rotate(-17.24 21.6056 29.2582)" class="st30" cx="21.6" cy="29.3" rx="6.9" ry="6.9"/>
  <ellipse transform="rotate(-17.24 21.24 30.5263)" class="st60" cx="21.2" cy="30.5" rx="3" ry="3"/>
  <path class="st61" d="M19.6 22.7c-3.6 1.1-5.7 5-4.5 8.6 1.1 3.6 5 5.7 8.6 4.5 3.6-1.1 5.7-5 4.5-8.6-1.1-3.6-5-5.6-8.6-4.5zm3.9 12.7c-3.2 1-6.6-.8-7.5-4-1-3.2.8-6.6 4-7.5 3.2-1 6.6.8 7.5 4 1 3.1-.8 6.5-4 7.5z"/>
  <path class="st3" d="M52.7 30c-5.9 4.3-11.8 7.1-17 9.4-5.2 2.2-11.3 4.5-18.5 5.9-1.6.3-1.7 1.7-1 2.9 4.7 7.4 16.7 10.8 26.2 6.7 9.5-4.1 15.3-15.1 13.1-23.6-.4-1.4-1.5-2.2-2.8-1.3z"/>
  <path d="M52.3 29.1c-5.9 4.3-11.8 7.1-17 9.4-5.3 2.2-11.4 4.5-18.6 5.9-1.6.3-1.7 1.7-1 2.9 4.7 7.4 16.1 11 26.2 6.7S57.2 38.8 55 30.4c-.3-1.4-1.4-2.2-2.7-1.3z" fill="#af4c0e"/>
  <path d="M35.8 39.7c-9 3.9-18.7 6.3-18.7 6.3s.8 1.9 1.3 3 1.7 1.3 2.4 1.2c2.8-.4 9.1-1.7 17.3-5.2 8.2-3.5 13.4-7.2 15.6-8.9.6-.5 1.2-1.5.8-2.6-.5-1.1-1.3-3-1.3-3s-8.4 5.4-17.4 9.2z" fill="#98380d"/>
  <path d="M44 56.4c-7.2-3-9.8-7.6-11.7-12-.9-2.2.1-4.7 2.3-5.7l1.2-.5c2.2-.9 4.7.1 5.7 2.3l1 2.4c1.2 2.8 3.3 5.1 6 6.5 2.2 1.2 3 3.7 1.6 5.7-1.7 2.3-4.5 2-6.1 1.3z" fill="#fc6853"/>
  <path class="st8" d="M33.4 46.9s4.6-1.2 9.1-3.9c-.1-.2-.5-1.1-.5-1.1l-9.1 3.9.5 1.1z"/>
  <path d="M35.5 39.1c-9 3.9-18.7 6.3-18.7 6.3s.8 1.9 1.3 3 1.7 1.3 2.4 1.2c2.8-.4 9.1-1.7 17.3-5.2 8.2-3.5 13.4-7.2 15.6-8.9.6-.5 1.2-1.5.8-2.6-.5-1.1-1.3-3-1.3-3s-8.4 5.3-17.4 9.2z" fill="#e6b9b7"/>
  <path d="M30.4 46.2c-.6.2-1.4.5-2.3.8-.7.2-1.4-.2-1.7-.8l-1-2.4 4.4-1.9 1.3 2.9c.2.5-.1 1.2-.7 1.4z" fill="#ffe4d0"/>
  <path d="M52.5 29c-1 .7-8.9 6-17.3 9.6-8.4 3.6-17.6 5.8-18.8 6l.8 1.7s7.8-.8 18.9-5.6c11.2-4.8 17.1-9.9 17.1-9.9l-.7-1.8z" fill="#c18272"/>
  <path class="st8" d="M39.8 47.3c-.2.1-.3 0-.5-.1-.9-.7-1.8-2.2-1.8-2.2l1.3-.8s.2 1.5 1.2 2.6c.1.2 0 .4-.2.5z"/>
</svg>
