<svg height="67" viewBox="0 0 67 67" width="67" xmlns="http://www.w3.org/2000/svg" xmlns:xlink="http://www.w3.org/1999/xlink"><linearGradient id="a" gradientUnits="userSpaceOnUse" x1="33.506" x2="33.506" y1="23.2868" y2="56.1149"><stop offset="0" stop-color="#fcbb28" stop-opacity="0"/><stop offset="1" stop-color="#fca028"/></linearGradient><circle cx="33.5" cy="33.5" fill="none" r="33.5"/><circle cx="33.5" cy="33.6" fill="#ffda54" r="30.6"/><path d="m33.5 3c-16.9 0-30.6 13.7-30.6 30.6s13.7 30.6 30.6 30.6 30.6-13.7 30.6-30.6-13.7-30.6-30.6-30.6zm0 59.4c-16.2 0-29.3-13.1-29.3-29.3 0-16.1 13.1-29.2 29.3-29.2s29.3 13.1 29.3 29.3c0 16.1-13.1 29.2-29.3 29.2z" fill="url(#a)"/><path d="m52.9 38.2c-7.2 1.6-13.7 1.9-19.4 1.9s-12.2-.3-19.4-1.9c-1.6-.3-2.2.9-2 2.2 1.4 8.7 11.1 16.5 21.4 16.5s20-7.9 21.4-16.5c.2-1.3-.5-2.6-2-2.2z" fill="#ffda54"/><path d="m52.9 37.2c-7.2 1.6-13.7 1.9-19.4 1.9s-12.2-.3-19.4-1.9c-1.6-.3-2.2.9-2 2.2 1.4 8.7 10.5 16.6 21.4 16.6s20-7.9 21.4-16.5c.2-1.4-.5-2.6-2-2.3z" fill="#af4c0e"/><path d="m33.5 40.4c-9.8 0-19.6-1.6-19.6-1.6v3.3c0 1.2 1 1.9 1.7 2.1 2.8.7 9 2 17.9 2s15.2-1.3 17.9-2c.7-.2 1.7-.9 1.7-2.1v-3.3s-9.8 1.7-19.6 1.6z" fill="#98380d"/><path d="m34.1 61.2h-1.3c-2.4 0-4.3-1.9-4.3-4.3v-13.5c0-2.4 1.9-4.3 4.3-4.3h1.3c2.4 0 4.3 1.9 4.3 4.3v13.5c0 2.4-1.9 4.3-4.3 4.3z" fill="#e03855"/><path d="m28.5 46.1s4.7.7 9.9 0v-1.2h-9.9z" fill="#ac2d13"/><path d="m33.5 39.7c-9.8 0-19.6-1.6-19.6-1.6v3.3c0 1.2 1 1.9 1.7 2.1 2.8.7 9 2 17.9 2s15.2-1.3 17.9-2c.7-.2 1.7-.9 1.7-2.1v-3.3s-9.8 1.6-19.6 1.6z" fill="#e6b9b7"/><path d="m26 44.3c-.6 0-1.4-.1-2.4-.2-.7-.1-1.2-.7-1.2-1.4v-2.7h4.8v3.2c-.1.6-.6 1.1-1.2 1.1z" fill="#ffe4d0"/><path d="m53.1 37.2c-1.2.3-10.5 2-19.6 1.9-9.1 0-18.5-1.7-19.6-1.9v1.8s7.4 2.3 19.6 2.3 19.6-2.3 19.6-2.3z" fill="#c18272"/><path d="m33.5 49c-.2 0-.3-.1-.4-.3l-.4-2.8h1.5l-.4 2.8c0 .1-.2.3-.3.3z" fill="#ac2d13"/><circle cx="43.8" cy="25.6" fill="#fff" r="8.2"/><circle cx="43.8" cy="25.6" fill="#575756" r="3.3"/><path d="m43.8 17.5c-4.5 0-8.2 3.7-8.2 8.2s3.7 8.2 8.2 8.2 8.2-3.7 8.2-8.2c0-4.6-3.7-8.2-8.2-8.2zm0 15.7c-3.9 0-7.1-3.2-7.1-7.1s3.2-7.1 7.1-7.1 7.2 3.1 7.2 7c0 4-3.2 7.2-7.2 7.2z" fill="#fda330"/><path d="m16.4 28.2c-.2 0-.4 0-.6-.1-.7-.3-1-1.1-.7-1.8.1-.2 2.1-4.3 7.2-4.3s7 3.7 7.1 3.9c.3.7.1 1.5-.6 1.9-.7.3-1.2 0-1.9-.6-.1-.1-1.3-1.3-4.6-1.3s-4.6 1.6-4.7 1.7c-.3.3-.6.6-1.2.6z" fill="#ffe585"/><path d="m16.4 27.7c-.2 0-.4 0-.6-.1-.7-.3-1-1.1-.7-1.8.1-.2 2.1-4.3 7.2-4.3s7 3.7 7.1 3.9c.3.7.1 1.5-.6 1.9-.7.3-1.2 0-1.9-.6-.1-.1-1.3-1.3-4.6-1.3s-4.6 1.6-4.7 1.7c-.3.3-.6.6-1.2.6z" fill="#fda330"/></svg>