<svg height="67" viewBox="0 0 67 67" width="67" xmlns="http://www.w3.org/2000/svg" xmlns:xlink="http://www.w3.org/1999/xlink"><linearGradient id="a" gradientUnits="userSpaceOnUse" x1="33.5182" x2="33.5182" y1="23.3022" y2="56.1554"><stop offset="0" stop-color="#fcbb28" stop-opacity="0"/><stop offset="1" stop-color="#e94705"/></linearGradient><circle cx="33.5" cy="33.5" fill="none" r="33.5"/><circle cx="33.5" cy="33.6" fill="#fb8423" r="30.6"/><path d="m33.5 3c-16.9 0-30.6 13.7-30.6 30.6s13.7 30.6 30.6 30.6 30.6-13.7 30.6-30.6c.1-16.9-13.7-30.6-30.6-30.6zm0 59.5c-16.2 0-29.3-13.1-29.3-29.3s13.1-29.3 29.3-29.3 29.3 13.1 29.3 29.3-13.1 29.3-29.3 29.3z" fill="url(#a)"/><path d="m23.1 50c3.8-.8 7.3-1 10.4-1s6.6.2 10.4 1c.8.2 1.2-.5 1.1-1.2-.7-4.6-5.9-8.9-11.5-8.9-5.5.1-10.7 4.3-11.5 8.9-.1.8.3 1.4 1.1 1.2z" fill="#ff974a"/><path d="m23.1 49.7c3.8-.8 7.3-1 10.4-1s6.6.2 10.4 1c.8.2 1.2-.5 1.1-1.2-.7-4.6-5.6-8.9-11.5-8.9s-10.7 4.2-11.5 8.9c-.1.7.3 1.4 1.1 1.2z" fill="#652205"/><path d="m52.7 20.7-11.7 7c.3 3.1 2.5 5.9 5.7 6.7 4.1 1 8.2-1.5 9.2-5.5.9-3.3-.5-6.5-3.2-8.2z" fill="#ff974a"/><g fill="#652205"><path d="m52.5 21-11.1 6.6c.3 3 2.4 5.6 5.4 6.3 3.9 1 7.7-1.4 8.7-5.2.8-3-.5-6-3-7.7z"/><path d="m38 29.3c-.6-1-.3-2.3.7-3 0 0 8.9-4 14-8.4.9-.8 2.3-.3 3 .7.6 1 .3 2.3-.7 3l-14 8.4c-1.1.7-2.4.3-3-.7z"/><path d="m54.6 23.1s-.7-.9.3-1.5c-.8-.4-2.2.2-2.3.3s-.3.8-.1.9c.2.2 2.1.3 2.1.3z"/></g><circle cx="48.6" cy="27.4" fill="#e94e1b" r="3.4"/><path d="m45.7 25.7s1.2-1.8 2.1-3.3c.9.6 1.3 1.4 1.8 1.8l.7-.7c.4 0 1.4 2.5 1.4 2.5z" fill="#e94e1b"/><path d="m40.6 30.2s1.4-.2 2 .7c.7-1.3 0-2.7 0-2.7l-1.9 1z" fill="#652205"/><path d="m15.9 20.7 11.7 7c-.3 3.1-2.5 5.9-5.7 6.7-4.1 1-8.2-1.5-9.2-5.5-.9-3.3.5-6.5 3.2-8.2z" fill="#ff974a"/><path d="m16.1 21 11.1 6.6c-.3 3-2.4 5.6-5.4 6.3-3.9 1-7.7-1.4-8.7-5.2-.8-3 .5-6 3-7.7z" fill="#652205"/><path d="m30.6 29.3c.6-1 .3-2.3-.7-3 0 0-8.9-4-14-8.4-.9-.8-2.3-.3-3 .7-.6 1-.3 2.3.7 3l14 8.4c1.1.7 2.4.3 3-.7z" fill="#652205"/><path d="m14 23.1s.7-.9-.3-1.5c.8-.4 2.2.2 2.3.3 0 .1.3.8.1.9s-2.1.3-2.1.3z" fill="#652205"/><circle cx="20" cy="27.4" fill="#e94e1b" r="3.4"/><path d="m17 25.7s1.1-1.8 2-3.4c.9.6 1.3 1.4 1.8 1.8l.7-.7c.4 0 1.5 2.5 1.5 2.5z" fill="#e94e1b"/><path d="m28.1 30.2s-1.4-.2-2 .7c-.7-1.3 0-2.7 0-2.7l1.9 1z" fill="#652205"/></svg>